<?xml version="1.0" encoding="UTF-8"?>
<svg id="svg1431" width="256" height="256" version="1.1" viewBox="0 0 256 256" xmlns="http://www.w3.org/2000/svg">
 <circle id="path843" cx="128" cy="128" r="116.41" fill="#f5f5f5" stroke-width="0"/>
 <path id="path3381" d="m128.25 191.7-20.303 0.36821-0.63821-2.0349c-0.35101-1.1192-0.91937-2.9349-1.263-4.0349l-0.62482-2h-8.0837v-4h2.5923c1.4258 0 4.069-1.35 5.8738-3l3.2815-3 1.7218-104.23-2.0534-1.7041c-1.1294-0.93728-1.7246-2.2362-1.3227-2.8864l0.73068-1.1823h21.032c11.568 0 21.459 0.42703 21.981 0.94896 0.52194 0.52192-0.3065 1.896-1.841 3.0534l-2.7899 2.1044 0.93939 52.207c0.51667 28.714 1.3551 52.88 1.8632 53.702 0.50806 0.82207 2.9897 2.2049 5.5148 3.073 2.5251 0.86808 4.735 2.1783 4.9109 2.9116 0.17591 0.73333-1.9256 1.6333-4.6702 2l-4.99 0.66667-1.559 6.6667z" fill="#ca8a04" stroke-width="1.3333"/>
</svg>
